<?xml version="1.0" encoding="UTF-8"?><svg id="Layer_2" xmlns="http://www.w3.org/2000/svg" viewBox="0 0 218.31 231.02"><defs><style>.cls-1,.cls-2,.cls-3,.cls-4,.cls-5,.cls-6,.cls-7{stroke-miterlimit:10;}.cls-1,.cls-2,.cls-3,.cls-4,.cls-5,.cls-7{stroke:#000;}.cls-2{font-family:Luminari-Regular, Luminari;font-size:44px;}.cls-2,.cls-3,.cls-4{fill:#fff;}.cls-3,.cls-6,.cls-7{stroke-width:.5px;}.cls-5{fill:#d48f00;}.cls-6{stroke:#666;}</style></defs><g id="Layer_1-2"><text class="cls-2" transform="translate(.5 208.56)"><tspan x="0" y="0">Swagimals</tspan></text><path class="cls-4" d="m50.17,1.24c-.29,8.46-2.7,11.69-5,13-3.94,2.24-8.06-.81-15,1-4.05,1.06-7.05,3.24-9,5-4.67-4.33-9.33-8.67-14-13,1.33,8.33,2.67,16.67,4,25,1.33,4.67,2.67,9.33,4,14,4,3.33,8,6.67,12,10-2.98,3.36-7.1,9.05-9,17-4.87,20.33,9.21,36.96,11,39,6.33,17.67,12.67,35.33,19,53h5c-.67-20.67-1.33-41.33-2-62,7-4.67,14-9.33,21-14,1.19,5.17,2.24,10.85,3,17,.48,3.83.8,7.51,1,11,2,.67,4,1.33,6,2,.11-3.43.57-7.93,2-13,1.28-4.56,2.84-6.54,5-12,1.24-3.14,2.76-7.52,4-13,.39-3.99,1.19-9.55,3-16,1.67-5.97,4.8-17.46,14-29,4.14-5.19,9.86-12.23,20-18,10.49-5.97,20.35-7.53,26-8,2.88.16,10.82.98,18,7,.95.79,1.81,1.63,1.81,1.63,0,0,3.85,3.8,6.19,9.37,3.16,7.52,2.25,18.3,2,21-.77,8.15-1.85,18.65-8,31-4.85,9.74-10.08,20.26-19,21-6.41.54-11.3-4.29-12-5-6.89-7-7.18-20.44,0-33,.72,6.01,1.39,9.01,2,9,.76-.01,1.42-4.68,2-14-1.16,0-4.05.12-7,2-3.23,2.06-4.57,4.95-5,6-.44,2.39-.93,5.84-1,10-.14,7.8-.26,15.1,4,21,5.41,7.48,15.02,8.73,18,9,7.47-3.98,11.63-8.64,14-12,2.69-3.82,3.51-6.59,9-23,4.88-14.57,4.8-14.08,5-15,1.34-6.28,2.19-16.73-3-31-1.34-2.96-5.3-10.61-14-15-6.49-3.28-12.48-3.15-17-3-10.56.35-18.23,4.1-24,7-8.21,4.12-25.78,12.95-34,31-3.2,7.03-2.96,11.06-7,13-8.53,4.09-20.16-9.58-26-5-4.26,3.34-3.97,10.94-3,17-1.36-2.75-3.23-6.84-5-12-1.25-3.65-1.88-5.48-2-7-.61-7.46,5.5-10.08,8-18,2.91-9.21-.8-18.04-2-21-2.1-5.17-4.99-8.82-7-11Z"/><path class="cls-5" d="m103.17,48.24c-3.01-2.57-1.52-6.86-6-10-2.52-1.77-5.22-1.97-6-2-3.64-.16-6.25,1.51-7,2-3.64,2.39-2.67,4.61-6,8-3.2,3.26-7.39,4.57-12,6-5.01,1.56-6.94,1.22-8,3-1.7,2.85,1.03,7.39,2,9,4.56,7.58,10.31,8.08,15,13,3.17,3.33,6.48,9.32,6,21,.75.12,3.44.67,5,3,2.2,3.29.3,7.38,0,8-1.28,2.63-3.26,3.44-3,4,.67,1.44,13.9-3.28,14-3,.06.17-4.89,1.47-10,5-4.47,3.09-7.29,6.66-7,7,.26.31,2.96-2.23,8-4,.99-.35,5.47-1.93,6-1,.81,1.41-9.24,5.77-13,15-2.06,5.06-1.57,9.98-1,13,1.38-2.82,3.59-6.78,7-11,3.38-4.19,6.78-7.2,7-7,.27.25-4.77,5.38-9,14-.73,1.48-3.11,6.49-2,12,.28,1.39.6,1.91,1,2,2.13.48,6.16-11.29,7-11,.44.15-.64,3.38-1,9-.12,1.79-.23,3.66,0,6,.34,3.44,1.25,6.18,2,8,.28-8.92.67-10.99,1-11,.47-.01.48,4.12,3,9,1.32,2.55,3.32,5.3,4,5,1.1-.48-1.93-8.6-1-9,.51-.22,2.16,1.94,6,9,.31-.53.67-1.2,1-2,2.81-6.78.29-14.05,0-14-.21.03.18,4.03,2,17,.62-2.27,1.44-5.73,2-10,.83-6.36.59-10.98,1-11,.43-.02.65,5.06,2,11,1.37,6.02,3.39,10.77,5,14,1.53-2.9,1.93-5.32,2-7,.12-2.65-.56-3.57-1-8-.3-2.99-.42-6.94,0-7,.51-.07,1.68,5.49,2,7,1.13,5.35,1.69,9.83,2,13,.65-8,1.32-12,2-12,.65,0,1.32,3.66,2,11,.18-1.07,1.32-7.6,4-8,2.43-.36,5.78,4.36,8,12,.53-.38,1.3-1.03,2-2,2.24-3.12,1.23-6.23,1-14-.16-5.38.29-5.17,0-10-.3-5.01-1.02-9-1-9,.01,0,.47,2.78,1,7,1.43,11.37,1.39,16.97,2,17,.37.02.97-1.95,2-11,1,3.33,2,6.67,3,10,.69-11.34,1.36-17,2-17,.7,0,1.36,6.67,2,20,1.23-1.78,2.84-4.47,4-8,1.83-5.56,1.52-9.98,2-10,.35-.02.95,2.32,2,13,1.51-1.91,3.75-5.28,5-10,1.65-6.25.65-11.49,0-14,.82,1.13,1.94,2.82,3,5,2.4,4.95,2.35,8.02,3,8,.94-.03,2.68-6.48,0-12-.38-.78-.92-1.53-2-3-4.79-6.55-8.41-9.46-8-10,.36-.47,3.5,1.14,6,3,3.63,2.7,5.79,5.86,7,8-.03-2.09-.36-5.39-2-9-.7-1.54-2.07-4.49-5-7-3.57-3.06-7.13-3.49-7-4,.14-.56,4.45-.3,9,1,5.04,1.45,7.71,3.42,8,3,.36-.52-3.03-4.46-8-7-7.92-4.05-15.97-2.55-16-3-.02-.27,2.94-.82,15-2-.67.13-8.68,1.53-12-3-.38-.52-.74-1.17-1-2,7.37-2.28,9.98-5.47,11-8,1.4-3.5.57-7.77,4-12,.77-.95,1.52-1.61,2-2v-5c-2.54-.21-4.58-.64-6-1-3.28-.84-3.81-1.47-4-2-.41-1.16.6-2.48,1-3,2.1-2.74,5.87-2.97,7-3,2.22,1.36,3.36,2.85,4,4,1.49,2.68,1.2,5.23,3,6,.08.03,1.11.46,2,0,1.46-.76.76-2.98,2-5,.93-1.51,2-1.35,5-3,2.65-1.46,5.7-3.13,7-6,.43-.95,1.23-3.28,0-7-2.96-3.98-5.88-6.47-8-8-1.29-.93-3.53-2.29-8-5-2.57-1.56-2.83-1.68-5-3-7.31-4.45-6.68-4.49-8-5-5.63-2.19-13.95-.27-16,4-1.03,2.15-.08,4.07-2,7,0,0-1.21,1.85-3,3-4.77,3.07-10.59-2.99-20-4-11.05-1.18-16.64,5.72-21,2Z"/><path class="cls-1" d="m78.17,76.24c4.6.34,11.54.78,20,1,10.69.27,18.57.06,21,0,10.18-.24,26.79,0,55,2-.55,2.4-1.47,5.9-3,10-2.38,6.37-3.58,9.55-6,12-5.31,5.36-15.28,6.29-23,3-11.95-5.09-13.91-18.34-14-19h-6c-.09,1.15-1,11.17-10,17-6.38,4.14-14.08,4.39-20,2-9.71-3.92-15.85-15.44-14-28Z"/><path class="cls-4" d="m143.19,103.35l2.86,2.39,14.7-26.5h-8.82c-4.35,11.99-4.39,12.12-8.74,24.11Z"/><path class="cls-4" d="m161.84,79.24c-4.99,8.67-9.98,17.33-14.98,26h3c4.99-8.67,9.98-17.33,14.98-26h-3Z"/><path class="cls-4" d="m98.17,77.24c-4,7.33-8,14.67-12,22,2,1.67,4,3.33,6,5l15-27h-9Z"/><path class="cls-4" d="m108.17,78.24c-5,8.67-10,17.33-15,26h3c5-8.67,10-17.33,15-26h-3Z"/><path class="cls-6" d="m31.29,40.88c2.85-.05,5.71-.11,8.56-.16-.18.52-.63,1.59-1.67,2.51-1.29,1.15-2.72,1.39-3.26,1.45-.29-.03-1.72-.2-2.74-1.45-.78-.95-.87-1.99-.89-2.35Z"/><path class="cls-6" d="m17.58,32.2c11.73-.3,23.46-.61,35.19-.91-2.17,2.55-4.33,5.1-6.5,7.65-3.88-2.24-7.75-4.48-11.63-6.72-3.12,2.42-6.24,4.85-9.36,7.27-2.57-2.43-5.13-4.87-7.7-7.3Z"/><path class="cls-1" d="m24.61,61.59c9.2-1.63,18.4-3.27,27.6-4.9.17.97.33,1.95.5,2.92-9.19,1.39-18.38,2.79-27.57,4.18-.17-.73-.35-1.46-.52-2.19Z"/><path class="cls-7" d="m113.48,107.66c2.37-.99,6.23-2.26,11.14-2.42,4.73-.15,8.54.78,10.93,1.57.96,7.99-3.24,14.57-7.83,15.61-5.34,1.21-13.55-4.57-14.25-14.76Z"/><path class="cls-3" d="m118.42,108.92c.28,1.02.56,2.03.84,3.05,1.7.23,3.72.38,5.99.31,2.31-.07,4.35-.35,6.04-.69l.16-3c-.68-.57-2.78-2.17-5.89-2.31-3.97-.18-6.62,2.15-7.15,2.63Z"/><path class="cls-7" d="m117.17,130.24c-.25-.34,1.16-2.1,8-8,8.32,5.21,10.15,6.72,10,7-.2.36-3.42-1.98-8-2-5.69-.03-9.6,3.54-10,3Z"/><path d="m94.02,61.57c-2.08-2.3-4.37-4.38-6.83-6.26-.29-.22-.83-.24-1.16-.15-.35.1-.73.36-.9.69-.18.35-.28.77-.15,1.16s.36.65.69.9c.23.17-.12-.1.02.02.06.05.12.1.18.14.14.11.28.22.41.33.29.23.58.47.86.71.56.47,1.1.95,1.64,1.45,1.08,1,2.12,2.05,3.11,3.14.53.58,1.59.58,2.12,0,.57-.62.56-1.5,0-2.12h0Z"/><path d="m98.44,60.41c-.31-1.11-.8-2.17-1.31-3.2-.23-.46-.47-.92-.7-1.38-.12-.25-.24-.49-.36-.74-.06-.12-.11-.25-.17-.37-.03-.06-.05-.12-.08-.19.08.2.1.23.03.08-.15-.38-.32-.68-.69-.9-.32-.19-.8-.27-1.16-.15-.7.23-1.36,1.07-1.05,1.85.44,1.08.96,2.1,1.48,3.14.23.46.45.92.66,1.39.06.15.05.13-.03-.08.03.06.05.13.08.19.05.13.1.25.14.38.09.26.17.51.25.78.21.75,1.07,1.3,1.85,1.05s1.28-1.04,1.05-1.85h0Z"/><path d="m101.99,55.5c-.38-1.08-.76-2.16-1.14-3.24-.13-.37-.34-.69-.69-.9-.32-.19-.8-.27-1.16-.15s-.71.34-.9.69-.29.78-.15,1.16c.38,1.08.76,2.16,1.14,3.24.13.37.34.69.69.9.32.19.8.27,1.16.15s.71-.34.9-.69.29-.78.15-1.16h0Z"/><path d="m107.6,57.83l-2.44-7.13c-.25-.74-1.04-1.31-1.85-1.05-.73.24-1.32,1.05-1.05,1.85l2.44,7.13c.25.74,1.04,1.31,1.85,1.05.73-.24,1.32-1.05,1.05-1.85h0Z"/><path d="m112.19,56.05l-3.51-8.37c-.3-.72-1.01-1.32-1.85-1.05-.69.22-1.37,1.07-1.05,1.85l3.51,8.37c.3.72,1.01,1.32,1.85,1.05.69-.22,1.37-1.07,1.05-1.85h0Z"/><path d="m115.75,54.03c-.31-1.58-.77-3.12-1.36-4.61-.15-.38-.33-.68-.69-.9-.32-.19-.8-.27-1.16-.15s-.71.34-.9.69-.3.79-.15,1.16c.6,1.49,1.05,3.03,1.36,4.61.15.77,1.11,1.28,1.85,1.05.82-.27,1.21-1.02,1.05-1.85h0Z"/><path d="m153.93,65.93c1.27-1.09,2.42-2.29,3.46-3.6.26-.32.44-.63.44-1.06,0-.37-.16-.81-.44-1.06s-.66-.46-1.06-.44c-.37.02-.82.13-1.06.44-1.04,1.31-2.19,2.51-3.46,3.6-.28.24-.44.71-.44,1.06s.16.81.44,1.06.66.46,1.06.44.75-.17,1.06-.44h0Z"/><path d="m150.36,63.23c1.91-1.78,3.63-3.75,5.2-5.84.22-.29.24-.82.15-1.16s-.36-.73-.69-.9c-.35-.18-.77-.28-1.16-.15s-.65.36-.9.69c-.09.12-.19.25-.28.37-.12.16.23-.29.01-.02-.04.05-.08.11-.13.16-.19.24-.38.48-.58.72-.39.47-.79.94-1.2,1.4-.81.91-1.67,1.77-2.56,2.6-.58.54-.58,1.59,0,2.12.62.57,1.51.57,2.12,0h0Z"/><path d="m146.01,61.09c2.03-2.35,4.06-4.69,6.1-7.04.51-.59.63-1.55,0-2.12-.56-.52-1.57-.63-2.12,0-2.03,2.35-4.06,4.69-6.1,7.04-.51.59-.63,1.55,0,2.12.56.52,1.57.63,2.12,0h0Z"/><path d="m141.41,60.13c2.34-2.22,4.27-4.9,5.66-7.81.34-.71.22-1.65-.54-2.05-.67-.35-1.69-.22-2.05.54-.66,1.39-1.44,2.73-2.34,3.98-.1.14-.2.28-.3.41,0,0-.23.3-.11.15.11-.14-.06.08-.08.1-.24.3-.48.59-.73.88-.51.59-1.05,1.15-1.62,1.68s-.59,1.58,0,2.12,1.51.58,2.12,0h0Z"/><path d="m136.86,57.99c.35-.56.73-1.11,1.12-1.65.1-.13.19-.26.29-.39.17-.22-.12.15,0,0,.05-.06.09-.11.13-.17.21-.27.43-.53.66-.8.88-1.03,1.83-1.99,2.85-2.88.59-.52.57-1.6,0-2.12-.63-.58-1.49-.56-2.12,0-2.14,1.88-4,4.08-5.51,6.49-.42.67-.16,1.68.54,2.05.74.39,1.61.17,2.05-.54h0Z"/><path d="m131.98,57.38c1.37-1.66,2.74-3.32,4.1-4.98.26-.32.44-.64.44-1.06,0-.37-.16-.81-.44-1.06-.55-.51-1.59-.65-2.12,0l-4.1,4.98c-.26.32-.44.64-.44,1.06,0,.37.16.81.44,1.06.55.51,1.59.65,2.12,0h0Z"/><path d="m126.07,56.07c.23-.41.49-.8.78-1.17l-.23.3c.47-.61,1.01-1.16,1.62-1.63l-.3.23c.41-.31.84-.58,1.3-.81.32-.16.6-.56.69-.9.1-.36.05-.84-.15-1.16s-.51-.6-.9-.69c-.41-.09-.78-.04-1.16.15-1.79.89-3.26,2.43-4.23,4.15-.19.34-.26.78-.15,1.16.1.35.36.73.69.9.71.38,1.64.19,2.05-.54h0Z"/><path d="m120.4,56.1c.78-.79,1.61-1.55,2.46-2.26.21-.17.41-.34.62-.5.05-.04.1-.08.15-.12.15-.12-.3.23-.04.03.1-.08.2-.15.3-.23.45-.33.91-.65,1.37-.96.65-.43.99-1.34.54-2.05-.42-.65-1.35-1-2.05-.54-1.97,1.31-3.81,2.82-5.48,4.5-.55.56-.6,1.57,0,2.12s1.53.6,2.12,0h0Z"/></g></svg>